<?xml version="1.0" encoding="UTF-8" ?>
<!DOCTYPE svg PUBLIC "-//W3C//DTD SVG 1.1//EN" "http://www.w3.org/Graphics/SVG/1.1/DTD/svg11.dtd">
<svg width="76pt" height="16pt" viewBox="0 0 76 16" version="1.1" xmlns="http://www.w3.org/2000/svg">
<g id="#00000085">
<path fill="#000000" opacity="0.52" d=" M 1.87 0.00 L 3.21 0.00 C 3.62 0.53 4.43 1.58 4.84 2.10 C 6.83 2.51 8.83 2.90 10.83 3.32 C 8.34 3.76 5.82 3.96 3.31 4.27 C 2.85 2.84 2.40 1.41 1.87 0.00 Z" />
<path fill="#000000" opacity="0.52" d=" M 51.94 4.40 C 53.56 3.85 54.13 4.39 53.66 6.02 C 52.04 6.58 51.47 6.04 51.94 4.40 Z" />
<path fill="#000000" opacity="0.52" d=" M 1.59 8.06 C 3.01 5.77 5.91 3.44 8.50 5.51 C 10.77 6.85 9.61 9.38 9.10 11.36 C 7.72 11.56 6.33 11.63 4.94 11.59 C 3.41 10.89 2.67 9.25 1.59 8.06 M 3.90 6.77 C 3.97 7.58 4.11 9.21 4.18 10.02 C 6.01 9.91 8.37 10.39 8.69 7.92 C 7.73 5.98 5.60 6.58 3.90 6.77 Z" />
<path fill="#000000" opacity="0.52" d=" M 46.56 7.20 C 47.04 6.52 47.52 5.84 47.99 5.16 C 48.88 6.22 50.21 6.73 51.18 7.70 C 48.31 7.88 49.08 10.71 48.92 12.71 C 49.81 13.50 50.68 14.30 51.54 15.13 C 50.74 14.99 49.13 14.72 48.33 14.59 C 46.60 12.65 47.13 9.61 46.56 7.20 Z" />
<path fill="#000000" opacity="0.52" d=" M 17.79 8.77 C 19.93 7.06 22.51 6.43 25.16 7.28 C 23.48 7.71 21.79 8.11 20.10 8.48 C 20.05 9.84 19.98 11.19 19.89 12.55 C 21.63 13.18 23.37 13.80 25.09 14.47 C 17.94 15.87 10.38 13.31 3.50 16.00 L 2.96 16.00 C 3.22 14.38 1.04 14.16 0.00 14.77 L 0.00 10.25 C 0.27 10.92 0.81 12.25 1.08 12.92 C 6.71 13.32 12.35 13.23 17.99 13.03 C 17.93 11.61 17.86 10.19 17.79 8.77 Z" />
<path fill="#000000" opacity="0.52" d=" M 25.20 7.01 C 27.04 6.92 28.88 6.84 30.72 6.76 C 29.54 7.45 28.37 8.12 27.19 8.78 C 27.06 10.89 27.01 12.99 26.81 15.09 C 23.82 13.54 25.50 9.67 25.20 7.01 Z" />
<path fill="#000000" opacity="0.52" d=" M 30.74 10.95 C 30.24 7.88 34.16 5.35 36.66 7.29 C 37.59 8.33 37.90 9.73 38.48 10.96 C 36.24 11.17 33.99 11.35 31.76 11.65 C 33.49 13.11 35.65 13.46 37.83 13.61 C 35.69 16.65 30.40 14.53 30.74 10.95 M 33.15 8.30 C 31.95 9.85 34.79 11.07 35.72 9.77 C 36.93 8.20 34.09 6.99 33.15 8.30 Z" />
<path fill="#000000" opacity="0.52" d=" M 38.99 7.64 C 40.93 6.91 43.75 5.81 45.14 8.08 C 45.51 10.10 45.51 12.16 45.62 14.21 C 44.09 14.52 42.57 14.84 41.05 15.15 C 40.42 14.83 39.16 14.17 38.54 13.84 C 38.35 10.31 41.89 9.78 44.50 8.98 C 42.72 8.34 40.85 7.98 38.99 7.64 M 39.80 12.01 C 40.24 12.49 41.11 13.45 41.55 13.93 C 42.55 13.02 43.50 12.07 44.38 11.05 C 42.85 11.34 41.32 11.66 39.80 12.01 Z" />
<path fill="#000000" opacity="0.52" d=" M 51.93 7.00 C 53.22 7.02 54.50 7.04 55.79 7.07 C 56.50 8.81 57.20 10.56 57.89 12.31 C 58.88 10.16 59.77 7.84 61.72 6.35 C 60.95 9.56 59.60 12.58 57.98 15.44 C 56.43 12.93 55.12 10.24 54.76 7.27 C 53.43 9.77 53.56 12.68 53.12 15.40 C 51.18 13.00 52.04 9.81 51.93 7.00 Z" />
<path fill="#000000" opacity="0.52" d=" M 61.73 10.98 C 61.41 8.61 63.51 6.27 65.95 6.69 C 68.30 6.71 68.60 9.34 69.43 10.99 C 67.16 11.16 64.89 11.30 62.62 11.53 C 64.34 13.07 66.53 13.56 68.80 13.65 C 66.60 16.57 61.37 14.63 61.73 10.98 M 64.08 8.31 C 62.82 9.86 65.72 11.04 66.66 9.77 C 67.93 8.20 65.02 7.03 64.08 8.31 Z" />
<path fill="#000000" opacity="0.52" d=" M 70.14 9.61 C 68.92 6.16 73.96 6.85 76.00 6.88 L 76.00 8.03 C 74.32 8.10 72.65 8.19 70.97 8.29 C 72.62 9.40 74.35 10.40 76.00 11.50 L 76.00 13.93 C 73.73 15.33 71.17 14.98 68.86 13.91 C 70.88 13.54 72.91 13.21 74.95 12.90 C 73.31 11.86 71.61 10.89 70.14 9.61 Z" />
</g>
</svg>
